<svg width="205" height="41" viewBox="0 0 205 41" fill="none" xmlns="http://www.w3.org/2000/svg">
<path d="M41.6758 10.4529V16.5398H54.0362V25.7246H41.6758V39.0398H31V0.996355H55.4462V10.4529H41.6758Z" fill="#7252DC"/>
<path d="M71.7803 10.4529V16.5398H84.1041V25.7246H71.7803V39.0398H61.1229V0.996355H85.5691V10.4529H71.7803Z" fill="#7252DC"/>
<path d="M91.2273 0.996355H101.94V39.0398H91.2273V0.996355Z" fill="#7252DC"/>
<path d="M123.804 27.4094H120.013V39.0398H109.411V0.996358H126.056C128.014 0.973907 129.96 1.30543 131.797 1.97462C133.469 2.58837 134.999 3.53128 136.292 4.74636C137.564 5.95397 138.574 7.4057 139.259 9.01266C139.986 10.7334 140.35 12.5827 140.33 14.4474C140.371 16.646 139.811 18.8148 138.71 20.7246C137.627 22.5571 136.085 24.0825 134.232 25.154L141.868 39.0127H130.066L123.804 27.4094ZM120.013 18.5507H124.848C125.474 18.5917 126.102 18.5096 126.696 18.309C127.29 18.1085 127.838 17.7935 128.309 17.3822C128.706 16.9983 129.019 16.5368 129.227 16.0269C129.436 15.517 129.534 14.9699 129.517 14.4203C129.534 13.8707 129.436 13.3235 129.227 12.8137C129.019 12.3038 128.706 11.8422 128.309 11.4583C127.838 11.0471 127.29 10.7321 126.696 10.5315C126.102 10.331 125.474 10.2488 124.848 10.2898H120.013V18.5507Z" fill="#7252DC"/>
<path d="M146.547 0.996355H157.26V39.0398H146.547V0.996355Z" fill="#7252DC"/>
<path d="M183.903 40.0181C180.996 40.048 178.108 39.5411 175.388 38.5235C172.89 37.5904 170.603 36.1774 168.659 34.3659C166.764 32.5774 165.267 30.418 164.264 28.0253C163.201 25.4849 162.669 22.7582 162.698 20.009C162.669 17.2599 163.201 14.5331 164.264 11.9927C165.267 9.60006 166.764 7.44061 168.659 5.65215C170.603 3.84071 172.89 2.42771 175.388 1.49454C180.877 -0.498181 186.902 -0.498181 192.391 1.49454C194.867 2.42574 197.135 3.82911 199.065 5.62498C200.952 7.41414 202.44 9.5739 203.433 11.9656C204.484 14.5209 205.004 17.2596 204.962 20.0181C205.007 22.7857 204.487 25.534 203.433 28.0978C202.44 30.4895 200.952 32.6492 199.065 34.4384C197.135 36.2342 194.867 37.6376 192.391 38.5688C189.678 39.5726 186.799 40.0642 183.903 40.0181ZM183.903 30.2355C185.287 30.2508 186.66 29.9921 187.941 29.4746C189.144 28.9883 190.234 28.2621 191.141 27.3411C192.048 26.4201 192.754 25.3241 193.215 24.1214C193.72 22.8118 193.972 21.4198 193.956 20.0181C193.972 18.6164 193.72 17.2244 193.215 15.9148C192.754 14.7121 192.048 13.6161 191.141 12.6951C190.234 11.7741 189.144 11.0479 187.941 10.5616C186.66 10.0441 185.287 9.78535 183.903 9.8007C182.511 9.78705 181.129 10.0456 179.838 10.5616C178.63 11.0486 177.536 11.7762 176.624 12.6993C175.711 13.629 174.992 14.7279 174.509 15.9329C173.986 17.2383 173.725 18.632 173.74 20.0362C173.725 21.4404 173.986 22.8341 174.509 24.1395C174.992 25.3445 175.711 26.4434 176.624 27.3732C177.538 28.2897 178.631 29.011 179.838 29.4927C181.13 30.0025 182.512 30.2549 183.903 30.2355Z" fill="#7252DC"/>
<path d="M25.0505 28.9855V38.0435H0V0H24.611V9.05797H10.5476V14.7101H23.1827V23.2428H10.5476V28.9493L25.0505 28.9855Z" fill="#7252DC"/>
</svg>
