<svg fill="#000000" xmlns="http://www.w3.org/2000/svg"  viewBox="0 0 50 50" width="50px" height="50px"><path d="M43,11h-2v2h2c1.7,0,3,1.3,3,3v27c0,1.7-1.3,3-3,3H16c-1.7,0-3-1.3-3-3v-2h-2v2c0,2.8,2.2,5,5,5h27c2.8,0,5-2.2,5-5V16C48,13.2,45.8,11,43,11z"/><path fill="none" stroke="#000000" stroke-miterlimit="10" stroke-width="2" d="M10 18L19 26 37 6"/><path d="M37,12v22c0,1.7-1.3,3-3,3H7c-1.7,0-3-1.3-3-3V7c0-1.7,1.3-3,3-3h26.4l1.7-1.9C34.7,2.1,34.4,2,34,2H7C4.2,2,2,4.2,2,7v27c0,2.8,2.2,5,5,5h27c2.8,0,5-2.2,5-5V9.8L37,12z"/></svg>